<?xml version="1.0" standalone="no"?>
<!DOCTYPE svg PUBLIC "-//W3C//DTD SVG 20010904//EN"
 "http://www.w3.org/TR/2001/REC-SVG-20010904/DTD/svg10.dtd">
<svg version="1.0" xmlns="http://www.w3.org/2000/svg"
 width="488.000000pt" height="281.000000pt" viewBox="0 0 488.000000 281.000000"
 preserveAspectRatio="xMidYMid meet">
<g transform="translate(0.000000,281.000000) scale(0.100000,-0.100000)"
fill="#000000" stroke="none">
<path d="M3640 2040 c-180 -16 -455 -50 -575 -70 -33 -6 -103 -17 -155 -25
-52 -7 -138 -21 -190 -30 -52 -9 -162 -19 -245 -21 -82 -1 -154 -3 -158 -4 -5
0 -5 -5 -2 -10 3 -6 3 -20 -1 -32 l-6 -21 -20 24 c-13 16 -21 20 -25 12 -12
-32 -44 -52 -118 -77 -44 -15 -89 -32 -100 -38 -11 -7 -67 -14 -125 -17 -58
-3 -111 -10 -119 -15 -7 -5 -45 -17 -84 -27 -38 -10 -73 -22 -76 -27 -7 -10
-43 -26 -53 -24 -5 1 -8 -2 -8 -7 0 -6 -39 -22 -87 -36 -49 -15 -142 -46 -208
-70 -66 -24 -133 -45 -150 -48 -37 -6 -233 -66 -257 -78 -10 -5 -26 -9 -36 -9
-26 0 -122 -37 -142 -55 -9 -8 -20 -15 -23 -15 -4 0 -29 -10 -57 -22 -39 -17
-50 -27 -50 -45 0 -16 -6 -23 -19 -23 -24 0 -37 -18 -23 -32 8 -8 28 -5 69 11
32 12 78 30 103 40 25 10 64 21 86 24 22 4 67 20 100 36 80 39 127 51 197 51
31 0 57 4 57 10 0 6 -19 10 -42 10 -49 0 -42 12 17 29 22 7 49 16 60 21 30 12
127 40 160 46 17 3 75 16 130 30 55 14 118 30 140 35 22 6 54 15 71 20 17 5
47 9 67 9 20 0 39 5 42 10 3 6 16 10 29 10 12 0 26 4 32 8 5 5 28 15 52 22 36
11 52 11 95 0 48 -12 147 -55 147 -64 0 -5 -57 10 -134 35 -62 21 -77 19 -60
-9 13 -20 70 -41 134 -49 44 -5 145 -45 152 -60 1 -5 20 -20 40 -36 69 -51
175 -224 152 -247 -5 -5 -36 -18 -69 -29 -74 -25 -173 -66 -182 -75 -3 -3 -14
-6 -23 -6 -10 0 -43 -11 -74 -25 -65 -29 -106 -32 -106 -10 0 24 -48 95 -64
95 -8 0 -17 -12 -21 -27 -3 -16 -19 -43 -36 -61 -37 -41 -54 -32 -64 34 -8 57
-22 49 -19 -11 4 -65 12 -85 35 -85 10 0 19 -4 19 -10 0 -5 -6 -10 -14 -10 -7
0 -27 -7 -42 -15 -16 -8 -39 -15 -52 -15 -22 0 -22 1 -8 28 16 31 32 191 22
217 -4 12 -10 14 -25 6 -29 -16 -33 -39 -9 -61 18 -16 20 -27 15 -69 -3 -28
-12 -61 -19 -73 -12 -22 -13 -20 -16 25 -3 48 -18 61 -41 33 -15 -18 -3 -106
16 -113 21 -8 -13 -29 -59 -36 l-38 -6 0 45 c0 29 5 47 14 50 12 5 12 10 -1
34 -23 48 -43 28 -43 -44 0 -72 -8 -106 -24 -106 -14 0 -42 52 -54 100 -12 51
-26 43 -33 -20 -3 -30 -9 -62 -13 -71 -12 -27 -62 -49 -113 -48 l-48 0 47 13
c82 22 99 52 51 90 -53 42 -141 39 -191 -7 -48 -44 -7 -118 74 -133 31 -6 33
-8 17 -19 -10 -7 -31 -15 -48 -18 -16 -3 -40 -8 -52 -12 -19 -6 -23 -4 -23 15
0 12 -11 36 -24 53 -13 18 -29 50 -35 72 -13 49 -35 85 -25 41 8 -32 -11 -34
-30 -3 -14 21 9 38 89 68 33 12 64 26 69 31 6 4 18 8 27 8 10 0 55 16 100 35
46 19 89 35 95 35 17 0 65 60 58 71 -8 14 -23 11 -52 -10 -57 -39 -248 -114
-398 -156 -19 -5 -22 0 -27 47 -4 29 -7 81 -7 116 0 46 -4 62 -14 62 -18 0
-28 -51 -32 -165 -2 -49 -5 -112 -7 -140 -2 -27 0 -70 4 -95 15 -84 19 -190 8
-190 -18 0 -79 -32 -79 -41 0 -17 50 -21 92 -6 24 9 77 23 118 32 41 10 81 20
89 23 32 12 -1 -15 -43 -37 -48 -23 -61 -51 -25 -51 12 0 42 11 68 24 25 13
80 38 121 56 41 18 115 51 163 73 82 38 90 40 99 24 13 -24 19 -21 239 88 103
51 202 95 220 98 38 6 177 40 225 55 45 14 86 37 138 76 47 37 124 79 164 91
19 5 23 2 28 -24 8 -39 32 -61 45 -40 5 8 8 28 7 44 -3 37 5 51 32 58 11 3 18
1 14 -4 -9 -15 23 -10 36 6 7 8 26 15 42 15 16 0 41 9 55 20 22 17 95 43 253
87 30 9 63 19 72 24 10 5 26 9 36 9 32 0 238 55 297 80 35 14 127 40 142 40 8
0 29 6 46 13 44 19 95 34 142 42 22 3 76 18 120 32 44 13 114 34 155 45 202
53 370 122 426 173 63 58 65 80 10 137 -50 52 -136 100 -223 124 -66 18 -446
27 -593 14z m259 -139 c-149 -182 -184 -234 -175 -257 8 -20 21 -17 53 11 22
19 24 24 11 25 -10 0 -18 3 -18 8 1 11 61 95 110 152 83 98 72 92 166 89 47
-2 87 -7 90 -11 6 -9 -29 -57 -82 -115 -19 -20 -34 -43 -34 -50 0 -23 30 -14
48 15 9 15 38 55 64 88 46 58 50 60 90 58 24 -1 62 -2 86 -3 39 -1 43 -3 40
-23 -2 -17 -21 -32 -65 -55 -71 -36 -81 -29 -26 16 27 22 32 31 20 31 -21 0
-84 -55 -92 -80 -5 -16 -119 -80 -143 -80 -7 0 -20 -4 -30 -9 -36 -19 -128
-55 -162 -62 -19 -4 -51 -12 -70 -18 -19 -5 -69 -19 -110 -31 -41 -11 -83 -23
-92 -26 -13 -4 -18 0 -18 14 0 32 29 79 121 192 20 25 40 55 44 68 3 12 11 22
16 22 5 0 9 5 9 10 0 22 -27 8 -45 -22 -10 -18 -46 -69 -80 -113 -34 -44 -75
-107 -91 -139 -27 -56 -32 -60 -84 -77 -70 -22 -96 -23 -104 -3 -9 24 70 146
156 239 15 17 28 33 28 37 0 4 14 21 30 38 34 34 36 40 16 40 -7 0 -34 -26
-59 -57 -26 -32 -67 -80 -92 -108 -48 -52 -112 -156 -124 -201 -7 -27 -59 -52
-168 -79 -48 -12 -53 -12 -58 5 -5 16 14 61 50 119 55 86 78 118 146 197 118
137 139 154 202 155 29 1 77 4 107 8 30 4 120 8 199 9 l144 3 -24 -30z m-550
-18 c-8 -10 -35 -40 -61 -68 -26 -27 -59 -65 -73 -84 -14 -19 -28 -37 -32 -40
-33 -25 -135 -205 -138 -245 -2 -23 -9 -31 -41 -42 -22 -8 -59 -15 -84 -17
-25 -2 -60 -11 -77 -20 -41 -22 -42 -10 -5 54 46 80 103 160 198 279 132 165
150 181 221 190 102 13 107 13 92 -7z m-199 -23 c0 -5 -4 -10 -8 -10 -15 0
-47 -33 -67 -67 -11 -18 -22 -33 -26 -33 -8 0 -120 -143 -164 -209 -35 -52
-68 -108 -99 -168 -13 -26 -41 -55 -74 -76 -28 -20 -52 -33 -52 -30 0 3 9 18
21 34 11 16 16 29 10 29 -6 0 -16 -10 -22 -22 -7 -13 -14 -18 -16 -13 -6 18
122 259 201 378 102 155 126 177 190 177 28 0 58 5 66 10 20 13 40 13 40 0z
m-233 -63 c-12 -17 -32 -42 -44 -56 -26 -30 -143 -224 -143 -239 0 -6 -6 -17
-12 -24 -13 -13 -33 -53 -78 -153 -35 -79 -36 -80 -58 -83 -16 -3 -24 7 -41
53 -22 60 -25 76 -13 74 22 -4 21 5 -7 36 -17 20 -31 46 -31 58 0 12 -3 31 -5
42 -4 14 7 34 35 65 22 25 40 50 40 55 -1 6 -12 -3 -26 -19 -14 -15 -27 -26
-30 -23 -8 8 13 43 72 124 49 66 56 72 104 82 71 15 75 14 55 -15 -9 -14 -14
-28 -11 -31 3 -3 15 10 26 30 15 25 29 36 53 40 44 6 46 1 10 -31 -44 -39
-105 -120 -101 -132 2 -7 39 30 83 81 72 84 114 115 137 102 4 -2 -2 -18 -15
-36z m-327 -34 c0 -3 -7 -15 -17 -25 -9 -10 -21 -26 -27 -36 -43 -73 -79 -121
-86 -117 -12 8 -29 64 -32 109 -3 42 3 48 67 64 49 12 95 14 95 5z"/>
</g>
</svg>
